<svg version="1.1" xmlns="http://www.w3.org/2000/svg" xmlns:xlink="http://www.w3.org/1999/xlink" width="211.95555" height="206.98777" viewBox="0,0,211.95555,206.98777"><g transform="translate(-158,-55.54887)"><g data-paper-data="{&quot;isPaintingLayer&quot;:true}" fill-rule="nonzero" stroke-linecap="butt" stroke-linejoin="miter" stroke-miterlimit="10" stroke-dasharray="" stroke-dashoffset="0" style="mix-blend-mode: normal"><path d="M160.67778,187.44046c0.03802,-0.64632 -10.40523,-43.36889 32.70647,-73.73595c0.34464,-0.24276 84.97256,-43.66006 136.62762,-56.66006c38.30233,-9.63953 39.94368,30.47226 39.94368,30.47226c0,0 -49.4972,194.40087 -135.76268,173.43885c-1.23859,-0.30097 -77.23495,-10.2718 -73.51509,-73.51509z" fill="#028b00" stroke="none" stroke-width="0"/><path d="M172.04444,180c0,-37.53082 30.42474,-67.95556 67.95556,-67.95556c37.53082,0 67.95556,30.42474 67.95556,67.95556c0,37.53082 -30.42474,67.95556 -67.95556,67.95556c-37.53082,0 -67.95556,-30.42474 -67.95556,-67.95556z" fill="#029400" stroke="none" stroke-width="0"/><path d="M170.5,180c0,-38.38379 31.11621,-69.5 69.5,-69.5c38.38379,0 69.5,31.11621 69.5,69.5c0,38.38379 -31.11621,69.5 -69.5,69.5c-38.38379,0 -69.5,-31.11621 -69.5,-69.5z" fill="none" stroke="#03b000" stroke-width="25"/></g></g></svg>